<svg width="735" height="205" viewBox="0 0 735 205" fill="none" xmlns="http://www.w3.org/2000/svg">
<rect width="735" height="205" fill="#232222"/>
<ellipse cx="266" cy="149" rx="38" ry="35" fill="#07DDD0"/>
<ellipse cx="373" cy="107" rx="8" ry="7" fill="#07DDD0"/>
<circle cx="297.5" cy="86.5" r="6.5" fill="#07DDD0"/>
<circle cx="363" cy="162" r="13" fill="#07DDD0"/>
<ellipse cx="152" cy="116" rx="8" ry="9" fill="#07DDD0"/>
<ellipse cx="567" cy="168.5" rx="7" ry="6.5" fill="#07DDD0"/>
<ellipse cx="414.5" cy="140" rx="9.5" ry="9" fill="#07DDD0"/>
<ellipse cx="480.5" cy="140" rx="9.5" ry="9" fill="#07DDD0"/>
<ellipse cx="592.5" cy="61" rx="25.5" ry="26" fill="#07DDD0"/>
<ellipse cx="473.5" cy="43.5" rx="49.5" ry="43.5" fill="#07DDD0"/>
<ellipse cx="699.5" cy="144.5" rx="35.5" ry="37.5" fill="#07DDD0"/>
<ellipse cx="575.5" cy="116" rx="8.5" ry="9" fill="#07DDD0"/>
<circle cx="477.5" cy="193.5" r="3.5" fill="#07DDD0"/>
<ellipse cx="517" cy="197.5" rx="6" ry="7.5" fill="#07DDD0"/>
<ellipse cx="66.5" cy="162" rx="13.5" ry="13" fill="#07DDD0"/>
<circle cx="47.5" cy="119.5" r="5.5" fill="#07DDD0"/>
<ellipse cx="4.5" cy="164" rx="4.5" ry="5" fill="#07DDD0"/>
<ellipse cx="146.5" cy="177" rx="13.5" ry="13" fill="#07DDD0"/>
</svg>
